<svg xmlns="http://www.w3.org/2000/svg" width="200" viewBox="0 0 143.1 15">
    <path d="M25.7,4.4h1l2.2,5h-5.4L25.7,4.4z M25.1,3.5l-3.6,8h1.1l0.5-1.1h6.2l0.5,1.1h1.1l-3.6-8H25.1z"/>
    <path d="M54.6,4.4h1l2.2,5h-5.4L54.6,4.4z M54,3.5l-3.6,8h1.1l0.5-1.1h6.2l0.5,1.1h1.1l-3.6-8H54z"/>
    <polygon points="43.8,3.5 38.8,9 38.8,3.5 37.7,3.5 37.7,11.5 38.8,11.5 38.8,10.5 41.1,7.9 44.1,11.5 45.4,11.5 41.8,7.1 45.1,3.5"/>
    <path d="M70.3,10.5c2,0,3.1-1.1,3.1-3s-1.1-3-3.1-3h-2.7v6.1H70.3z M66.6,11.5v-8h3.7c2.6,0,4.1,1.5,4.1,4	c0,2.5-1.5,4-4.1,4H66.6z"/>
    <path d="M85,4.4h1l2.2,5h-5.4L85,4.4z M84.3,3.5l-3.6,8h1.1l0.5-1.1h6.2l0.5,1.1h1.1l-3.6-8H84.3z"/>
    <path d="M102.1,7c0.6,0,1.3-0.5,1.3-1.3c0-0.8-0.5-1.2-1.7-1.2H98V7H102.1z M101.6,10.6c1.4,0,1.9-0.4,1.9-1.4	c0-0.9-0.9-1.3-1.5-1.3H98v2.6H101.6z M97,11.5v-8h4.7c1.8,0,2.7,0.7,2.7,2.1c0,0.8-0.4,1.5-1,1.8c0.8,0.3,1.2,0.9,1.2,1.8 c0,1.6-0.9,2.3-2.9,2.3H97z"/>
    <path d="M115,4.4h1l2.2,5h-5.4L115,4.4z M114.3,3.5l-3.6,8h1.1l0.5-1.1h6.2l0.5,1.1h1.1l-3.6-8H114.3z"/>
    <path d="M132,7.8c0.6,0,2-0.2,2-1.7c0-1.6-1.5-1.7-2-1.7h-3.9v3.4H132z M133.7,11.5l-2.3-2.8h-3.4v2.8h-1v-8h5 c1.8,0,3,1,3,2.6c0,1.4-0.8,2.3-2.3,2.6l2.3,2.8H133.7z"/>
    <polygon points="8.1,3.5 8.1,4.4 14.2,4.4 14.2,5.2 8.1,9.4 8.1,11.4 8.1,11.5 15.5,11.5 15.5,10.6 9.1,10.6 9.1,9.8 15.2,5.7 15.2,3.5"/>
</svg>